<?xml version="1.0" standalone="no"?>
<!DOCTYPE svg PUBLIC "-//W3C//DTD SVG 20010904//EN"
 "http://www.w3.org/TR/2001/REC-SVG-20010904/DTD/svg10.dtd">
<svg version="1.0" xmlns="http://www.w3.org/2000/svg"
 width="1067.000000pt" height="996.000000pt" viewBox="0 0 1067.000000 996.000000"
 preserveAspectRatio="xMidYMid meet">
<metadata>
Created by potrace 1.16, written by Peter Selinger 2001-2019
</metadata>
<g transform="translate(0.000000,996.000000) scale(0.100000,-0.100000)"
fill="#000000" stroke="none">
<path d="M1290 9515 l0 -375 375 0 375 0 0 375 0 375 -375 0 -375 0 0 -375z"/>
<path d="M5820 9515 l0 -375 755 0 755 0 0 -2260 0 -2260 -385 0 -385 0 0
-375 0 -375 385 0 385 0 0 -1505 0 -1505 -755 0 -755 0 0 -375 0 -375 1130 0
1130 0 0 1125 0 1125 365 0 365 0 0 -370 0 -370 380 0 380 0 0 375 0 375 -375
0 -375 0 0 370 0 370 -370 0 -370 0 0 3390 0 3390 -1130 0 -1130 0 0 -375z"/>
<path d="M2060 8775 l0 -375 375 0 375 0 0 375 0 375 -375 0 -375 0 0 -375z"/>
<path d="M5050 8775 l0 -375 375 0 375 0 0 375 0 375 -375 0 -375 0 0 -375z"/>
<path d="M2800 8005 l0 -375 370 0 370 0 0 -365 0 -365 -1495 0 -1495 0 0
-1900 0 -1900 1495 0 1495 0 0 -370 0 -370 375 0 375 0 0 375 0 375 -370 0
-370 0 0 385 0 385 -1125 0 -1125 0 0 1135 0 1135 1125 0 1125 0 0 370 0 370
370 0 370 0 0 375 0 375 -370 0 -370 0 0 370 0 370 -375 0 -375 0 0 -375z"/>
<path d="M4310 8005 l0 -375 375 0 375 0 0 375 0 375 -375 0 -375 0 0 -375z"/>
<path d="M4310 6525 l0 -375 375 0 375 0 0 375 0 375 -375 0 -375 0 0 -375z"/>
<path d="M5050 5755 l0 -375 375 0 375 0 0 375 0 375 -375 0 -375 0 0 -375z"/>
<path d="M5820 5015 l0 -375 375 0 375 0 0 375 0 375 -375 0 -375 0 0 -375z"/>
<path d="M4310 1995 l0 -375 370 0 370 0 0 -375 0 -375 375 0 375 0 0 380 0
380 -370 0 -370 0 0 370 0 370 -375 0 -375 0 0 -375z"/>
<path d="M9580 1250 l0 -380 375 0 375 0 0 380 0 380 -375 0 -375 0 0 -380z"/>
</g>
</svg>
