<?xml version="1.0" standalone="no"?>
<!DOCTYPE svg PUBLIC "-//W3C//DTD SVG 20010904//EN"
 "http://www.w3.org/TR/2001/REC-SVG-20010904/DTD/svg10.dtd">
<svg version="1.0" xmlns="http://www.w3.org/2000/svg"
 width="1067.000000pt" height="996.000000pt" viewBox="0 0 1067.000000 996.000000"
 preserveAspectRatio="xMidYMid meet">
<metadata>
Created by potrace 1.16, written by Peter Selinger 2001-2019
</metadata>
<g transform="translate(0.000000,996.000000) scale(0.100000,-0.100000)"
fill="#000000" stroke="none">
<path d="M3340 8775 l0 -375 1885 0 1885 0 0 375 0 375 -1885 0 -1885 0 0
-375z"/>
<path d="M2600 8005 l0 -375 375 0 375 0 0 375 0 375 -375 0 -375 0 0 -375z"/>
<path d="M7100 8005 l0 -375 380 0 380 0 0 375 0 375 -380 0 -380 0 0 -375z"/>
<path d="M1830 7265 l0 -375 375 0 375 0 0 375 0 375 -375 0 -375 0 0 -375z"/>
<path d="M7870 6885 l0 -755 -380 0 -380 0 0 370 0 370 -375 0 -375 0 0 -385
0 -385 370 0 370 0 0 -360 0 -360 385 0 385 0 0 -370 0 -370 375 0 375 0 0
370 0 370 385 0 385 0 0 360 0 360 370 0 370 0 0 385 0 385 -375 0 -375 0 0
-370 0 -370 -380 0 -380 0 0 755 0 755 -375 0 -375 0 0 -755z"/>
<path d="M1090 5000 l0 -1870 375 0 375 0 0 1870 0 1870 -375 0 -375 0 0
-1870z"/>
<path d="M1830 2735 l0 -375 375 0 375 0 0 375 0 375 -375 0 -375 0 0 -375z"/>
<path d="M7870 2735 l0 -375 375 0 375 0 0 375 0 375 -375 0 -375 0 0 -375z"/>
<path d="M2600 1995 l0 -375 375 0 375 0 0 375 0 375 -375 0 -375 0 0 -375z"/>
<path d="M7100 1995 l0 -375 380 0 380 0 0 375 0 375 -380 0 -380 0 0 -375z"/>
<path d="M3340 1225 l0 -375 1885 0 1885 0 0 375 0 375 -1885 0 -1885 0 0
-375z"/>
</g>
</svg>
