<?xml version="1.0" standalone="no"?>
<!DOCTYPE svg PUBLIC "-//W3C//DTD SVG 20010904//EN"
 "http://www.w3.org/TR/2001/REC-SVG-20010904/DTD/svg10.dtd">
<svg version="1.0" xmlns="http://www.w3.org/2000/svg"
 width="1068.000000pt" height="996.000000pt" viewBox="0 0 1068.000000 996.000000"
 preserveAspectRatio="xMidYMid meet">
<metadata>
Created by potrace 1.16, written by Peter Selinger 2001-2019
</metadata>
<g transform="translate(0.000000,996.000000) scale(0.100000,-0.100000)"
fill="#000000" stroke="none">
<path d="M5330 9470 l0 -380 -370 0 -370 0 0 -380 0 -380 375 0 375 0 0 375 0
375 750 0 750 0 0 -4130 0 -4130 -750 0 -750 0 0 370 0 370 -375 0 -375 0 0
-375 0 -375 370 0 370 0 0 -370 0 -370 1130 0 1130 0 0 4890 0 4890 -1130 0
-1130 0 0 -380z"/>
<path d="M3820 7965 l0 -375 375 0 375 0 0 375 0 375 -375 0 -375 0 0 -375z"/>
<path d="M3080 7205 l0 -375 -1510 0 -1510 0 0 -1897 0 -1896 968 6 c532 4
1211 10 1510 14 l542 6 0 -371 0 -372 370 0 370 0 0 -370 0 -370 375 0 375 0
0 375 0 375 -370 0 -370 0 0 370 0 370 -370 0 -370 0 0 370 0 370 -1130 0
-1130 0 0 1135 0 1135 1130 0 1130 0 0 370 0 370 370 0 370 0 0 380 0 380
-375 0 -375 0 0 -375z"/>
<path d="M9090 7200 l0 -380 375 0 375 0 0 380 0 380 -375 0 -375 0 0 -380z"/>
<path d="M9860 4935 l0 -1895 375 0 375 0 0 1895 0 1895 -375 0 -375 0 0
-1895z"/>
<path d="M8350 4960 l0 -1130 375 0 375 0 0 1130 0 1130 -375 0 -375 0 0
-1130z"/>
<path d="M9090 2695 l0 -375 375 0 375 0 0 375 0 375 -375 0 -375 0 0 -375z"/>
</g>
</svg>
